<svg xmlns="http://www.w3.org/2000/svg" viewBox="0 0 64 64" fill="none" role="img" aria-label="alhabeeda">
  <defs>
    <linearGradient id="ring" x1="8" y1="8" x2="56" y2="56" gradientUnits="userSpaceOnUse">
      <stop stop-color="#059669"/>
      <stop offset="0.38" stop-color="#F59E0B"/>
      <stop offset="0.72" stop-color="#3B82F6"/>
      <stop offset="1" stop-color="#F97316"/>
    </linearGradient>
    <linearGradient id="ball" x1="20" y1="18" x2="44" y2="46" gradientUnits="userSpaceOnUse">
      <stop stop-color="#34D399"/>
      <stop offset="0.55" stop-color="#10B981"/>
      <stop offset="1" stop-color="#047857"/>
    </linearGradient>
    <linearGradient id="crown" x1="24" y1="14" x2="40" y2="24" gradientUnits="userSpaceOnUse">
      <stop stop-color="#FDE68A"/>
      <stop offset="1" stop-color="#F59E0B"/>
    </linearGradient>
    <filter id="shadow" x="-20%" y="-20%" width="140%" height="140%">
      <feDropShadow dx="0" dy="1" stdDeviation="1.2" flood-color="#0C1B33" flood-opacity="0.28"/>
    </filter>
  </defs>

  <circle cx="32" cy="32" r="29" fill="#0C1B33"/>
  <circle cx="32" cy="32" r="29" stroke="url(#ring)" stroke-width="3"/>

  <g filter="url(#shadow)">
    <circle cx="32" cy="34" r="15" fill="url(#ball)"/>
    <path d="M32 21.5 37.8 25.2 36.1 32 32 35.2 27.9 32 26.2 25.2Z" fill="#ECFDF5" opacity="0.95"/>
    <path d="M32 35.2 36.1 32 39.8 34.8 38.5 40.2 32 42.8 25.5 40.2 24.2 34.8 27.9 32Z" fill="#D1FAE5" opacity="0.9"/>
    <path d="M26.2 25.2 32 21.5 25.5 23.8 24.2 29.2Z" fill="#A7F3C9" opacity="0.75"/>
    <path d="M37.8 25.2 39.8 29.2 38.5 34.8 36.1 32Z" fill="#6EE7B7" opacity="0.75"/>
    <path d="M24.2 34.8 25.5 40.2 32 42.8 27.9 32Z" fill="#34D399" opacity="0.65"/>
    <path d="M39.8 34.8 32 42.8 38.5 40.2Z" fill="#10B981" opacity="0.65"/>
  </g>

  <path d="M22 17.5 27 14.5 32 16.5 37 14.5 42 17.5 40 21.5 32 19.5 24 21.5Z" fill="url(#crown)"/>
  <path d="M27 14.5 28.5 18.5M37 14.5 35.5 18.5" stroke="#B45309" stroke-width="1.2" stroke-linecap="round"/>
</svg>
