<svg xmlns="http://www.w3.org/2000/svg" viewBox="0 0 64 64" fill="none" role="img" aria-label="alhabeeda">
  <defs>
    <linearGradient id="bg" x1="10" y1="6" x2="54" y2="58" gradientUnits="userSpaceOnUse">
      <stop stop-color="#152A45"/>
      <stop offset="1" stop-color="#060F1F"/>
    </linearGradient>
    <linearGradient id="stripe" x1="0" y1="32" x2="64" y2="32" gradientUnits="userSpaceOnUse">
      <stop stop-color="#059669"/>
      <stop offset="0.35" stop-color="#F59E0B"/>
      <stop offset="0.65" stop-color="#3B82F6"/>
      <stop offset="1" stop-color="#F97316"/>
    </linearGradient>
    <linearGradient id="ball" x1="22" y1="16" x2="42" y2="40" gradientUnits="userSpaceOnUse">
      <stop stop-color="#6EE7B7"/>
      <stop offset="0.45" stop-color="#10B981"/>
      <stop offset="1" stop-color="#047857"/>
    </linearGradient>
    <linearGradient id="gold" x1="28" y1="8" x2="36" y2="16" gradientUnits="userSpaceOnUse">
      <stop stop-color="#FDE68A"/>
      <stop offset="1" stop-color="#D97706"/>
    </linearGradient>
    <filter id="soft" x="-30%" y="-30%" width="160%" height="160%">
      <feDropShadow dx="0" dy="1.2" stdDeviation="1.2" flood-color="#000" flood-opacity="0.3"/>
    </filter>
  </defs>

  <circle cx="32" cy="32" r="31" fill="url(#bg)"/>
  <circle cx="32" cy="32" r="28.5" stroke="url(#stripe)" stroke-width="2.25"/>

  <g filter="url(#soft)">
    <circle cx="32" cy="28" r="13.5" fill="url(#ball)"/>
    <path d="M32 16.5 37.2 20 35.5 26.5 28.5 26.5 26.8 20Z" fill="#F0FDF4"/>
    <path d="M26.8 20 28.5 26.5 24.2 30.8 20.8 26.2Z" fill="#D1FAE5" opacity="0.92"/>
    <path d="M37.2 20 43.2 26.2 39.8 30.8 35.5 26.5Z" fill="#A7F3C9" opacity="0.88"/>
    <path d="M24.2 30.8 28.5 26.5 35.5 26.5 39.8 30.8 32 37Z" fill="#6EE7B7" opacity="0.78"/>
    <path d="M39.8 30.8 32 37 43.2 26.2Z" fill="#34D399" opacity="0.62"/>
  </g>

  <rect x="17.5" y="46" width="6.5" height="8" rx="1.25" fill="#059669"/>
  <rect x="28.75" y="41.5" width="6.5" height="12.5" rx="1.25" fill="#F59E0B"/>
  <rect x="40" y="44" width="6.5" height="10" rx="1.25" fill="#3B82F6"/>

  <path d="M32 8 33.4 11.9 37.6 12.1 34.3 14.5 35.4 18.5 32 16.3 28.6 18.5 29.7 14.5 26.4 12.1 30.6 11.9Z" fill="url(#gold)"/>
</svg>
